<svg xmlns="http://www.w3.org/2000/svg" viewBox="0 0 976 909.67"><defs><style>.cls-1{fill:#bfa3d8;}</style></defs><g id="Livello_2" data-name="Livello 2"><g id="Livello_1-2" data-name="Livello 1"><path class="cls-1" d="M976,229.79c-3.33,12.75-12,17-24.6,16.54-13.35-.52-26.74-.11-41.73-.11,0,7.22,0,13.76,0,20.31-.06,19-8.3,27.8-27.06,27.86q-99.45.28-198.9.21-162.19,0-324.4-.11-133.19,0-266.38.1c-18.26,0-26.46-8.6-26.58-27.08,0-6.63,0-13.26,0-21.27-14.58,0-28.27-.44-41.92.13-11.53.49-20-3.1-24.41-14.21V194.25c5.3-5.27,9.65-13,16-15.44C90.83,149.76,165.94,121.49,241,93Q363.3,46.52,485.63,0h4.74a10.19,10.19,0,0,0,1.92,1.28Q725.21,89.54,958,178c6.77,2.58,12,9.14,18,13.85Z"/><path class="cls-1" d="M11.84,909.67C2.49,903.54.62,894.48,1.34,884.09c.47-6.67,0-13.41.13-20.11C2.29,831.12,21.2,812,54.25,811.71c39-.4,78.09-.11,117.14-.1q372.74.06,745.47.13c31.6,0,49.94,10.71,55,35.81,3.19,15.94,2.2,32.88,1.55,49.32-.18,4.38-6,8.54-9.22,12.8Z"/><path class="cls-1" d="M422.72,325.72H552.46v388H682V325.85H811.82V714.51c10.48,0,19.75,0,29,0,15,.06,30-.26,45,.37,14.48.61,23.37,10,23.66,24.25.25,12.23,0,24.47-.1,36.7,0,1.09-.66,2.18-1.2,3.85H66.72c0-15.33-.84-30.27.27-45.07.87-11.55,11.39-19.61,24.29-19.89,19.33-.42,38.68-.13,58-.14h13.94V326h130.7V713.83H422.72Z"/></g></g></svg>